<svg xmlns="http://www.w3.org/2000/svg" width="1024" height="1024" viewBox="0 0 1024 1024"><rect x="444" y="257" width="34" height="34" fill="#6f6c68"/><rect x="478" y="257" width="34" height="34" fill="#6f6c68"/><rect x="512" y="257" width="34" height="34" fill="#6f6c68"/><rect x="546" y="257" width="34" height="34" fill="#6f6c68"/><rect x="580" y="257" width="34" height="34" fill="#6f6c68"/><rect x="614" y="257" width="34" height="34" fill="#6f6c68"/><rect x="648" y="257" width="34" height="34" fill="#6f6c68"/><rect x="682" y="257" width="34" height="34" fill="#6f6c68"/><rect x="716" y="257" width="34" height="34" fill="#6f6c68"/><rect x="750" y="257" width="34" height="34" fill="#6f6c68"/><rect x="410" y="291" width="34" height="34" fill="#6f6c68"/><rect x="444" y="291" width="34" height="34" fill="#3b3a37"/><rect x="478" y="291" width="34" height="34" fill="#3b3a37"/><rect x="512" y="291" width="34" height="34" fill="#3b3a37"/><rect x="546" y="291" width="34" height="34" fill="#3b3a37"/><rect x="580" y="291" width="34" height="34" fill="#3b3a37"/><rect x="614" y="291" width="34" height="34" fill="#3b3a37"/><rect x="648" y="291" width="34" height="34" fill="#3b3a37"/><rect x="682" y="291" width="34" height="34" fill="#3b3a37"/><rect x="716" y="291" width="34" height="34" fill="#3b3a37"/><rect x="750" y="291" width="34" height="34" fill="#3b3a37"/><rect x="784" y="291" width="34" height="34" fill="#1e1d1b"/><rect x="750" y="325" width="34" height="34" fill="#3b3a37"/><rect x="784" y="325" width="34" height="34" fill="#1e1d1b"/><rect x="342" y="359" width="34" height="34" fill="#a9a6a0"/><rect x="376" y="359" width="34" height="34" fill="#a9a6a0"/><rect x="410" y="359" width="34" height="34" fill="#a9a6a0"/><rect x="444" y="359" width="34" height="34" fill="#a9a6a0"/><rect x="478" y="359" width="34" height="34" fill="#a9a6a0"/><rect x="512" y="359" width="34" height="34" fill="#a9a6a0"/><rect x="546" y="359" width="34" height="34" fill="#a9a6a0"/><rect x="580" y="359" width="34" height="34" fill="#a9a6a0"/><rect x="614" y="359" width="34" height="34" fill="#a9a6a0"/><rect x="648" y="359" width="34" height="34" fill="#a9a6a0"/><rect x="682" y="359" width="34" height="34" fill="#3b3a37"/><rect x="750" y="359" width="34" height="34" fill="#3b3a37"/><rect x="784" y="359" width="34" height="34" fill="#1e1d1b"/><rect x="308" y="393" width="34" height="34" fill="#a9a6a0"/><rect x="342" y="393" width="34" height="34" fill="#6f6c68"/><rect x="376" y="393" width="34" height="34" fill="#6f6c68"/><rect x="410" y="393" width="34" height="34" fill="#6f6c68"/><rect x="444" y="393" width="34" height="34" fill="#6f6c68"/><rect x="478" y="393" width="34" height="34" fill="#6f6c68"/><rect x="512" y="393" width="34" height="34" fill="#6f6c68"/><rect x="546" y="393" width="34" height="34" fill="#6f6c68"/><rect x="580" y="393" width="34" height="34" fill="#6f6c68"/><rect x="614" y="393" width="34" height="34" fill="#6f6c68"/><rect x="648" y="393" width="34" height="34" fill="#6f6c68"/><rect x="682" y="393" width="34" height="34" fill="#3b3a37"/><rect x="750" y="393" width="34" height="34" fill="#3b3a37"/><rect x="784" y="393" width="34" height="34" fill="#1e1d1b"/><rect x="648" y="427" width="34" height="34" fill="#6f6c68"/><rect x="682" y="427" width="34" height="34" fill="#3b3a37"/><rect x="750" y="427" width="34" height="34" fill="#3b3a37"/><rect x="784" y="427" width="34" height="34" fill="#1e1d1b"/><rect x="240" y="461" width="34" height="34" fill="#ffffff"/><rect x="274" y="461" width="34" height="34" fill="#ffffff"/><rect x="308" y="461" width="34" height="34" fill="#ffffff"/><rect x="342" y="461" width="34" height="34" fill="#ffffff"/><rect x="376" y="461" width="34" height="34" fill="#ffffff"/><rect x="410" y="461" width="34" height="34" fill="#ffffff"/><rect x="444" y="461" width="34" height="34" fill="#ffffff"/><rect x="478" y="461" width="34" height="34" fill="#ffffff"/><rect x="512" y="461" width="34" height="34" fill="#ffffff"/><rect x="546" y="461" width="34" height="34" fill="#ffffff"/><rect x="580" y="461" width="34" height="34" fill="#6f6c68"/><rect x="648" y="461" width="34" height="34" fill="#6f6c68"/><rect x="682" y="461" width="34" height="34" fill="#3b3a37"/><rect x="750" y="461" width="34" height="34" fill="#3b3a37"/><rect x="784" y="461" width="34" height="34" fill="#1e1d1b"/><rect x="206" y="495" width="34" height="34" fill="#ffffff"/><rect x="240" y="495" width="34" height="34" fill="#e9e6df"/><rect x="274" y="495" width="34" height="34" fill="#e9e6df"/><rect x="308" y="495" width="34" height="34" fill="#e9e6df"/><rect x="342" y="495" width="34" height="34" fill="#e9e6df"/><rect x="376" y="495" width="34" height="34" fill="#e9e6df"/><rect x="410" y="495" width="34" height="34" fill="#e9e6df"/><rect x="444" y="495" width="34" height="34" fill="#e9e6df"/><rect x="478" y="495" width="34" height="34" fill="#e9e6df"/><rect x="512" y="495" width="34" height="34" fill="#e9e6df"/><rect x="546" y="495" width="34" height="34" fill="#e9e6df"/><rect x="580" y="495" width="34" height="34" fill="#a9a6a0"/><rect x="648" y="495" width="34" height="34" fill="#6f6c68"/><rect x="682" y="495" width="34" height="34" fill="#3b3a37"/><rect x="750" y="495" width="34" height="34" fill="#3b3a37"/><rect x="784" y="495" width="34" height="34" fill="#1e1d1b"/><rect x="206" y="529" width="34" height="34" fill="#ffffff"/><rect x="240" y="529" width="34" height="34" fill="#e9e6df"/><rect x="274" y="529" width="34" height="34" fill="#1e1d1b"/><rect x="308" y="529" width="34" height="34" fill="#1e1d1b"/><rect x="342" y="529" width="34" height="34" fill="#e9e6df"/><rect x="376" y="529" width="34" height="34" fill="#e9e6df"/><rect x="410" y="529" width="34" height="34" fill="#e9e6df"/><rect x="444" y="529" width="34" height="34" fill="#e9e6df"/><rect x="478" y="529" width="34" height="34" fill="#e9e6df"/><rect x="512" y="529" width="34" height="34" fill="#e9e6df"/><rect x="546" y="529" width="34" height="34" fill="#e9e6df"/><rect x="580" y="529" width="34" height="34" fill="#a9a6a0"/><rect x="648" y="529" width="34" height="34" fill="#6f6c68"/><rect x="682" y="529" width="34" height="34" fill="#3b3a37"/><rect x="750" y="529" width="34" height="34" fill="#1e1d1b"/><rect x="206" y="563" width="34" height="34" fill="#ffffff"/><rect x="240" y="563" width="34" height="34" fill="#e9e6df"/><rect x="274" y="563" width="34" height="34" fill="#e9e6df"/><rect x="308" y="563" width="34" height="34" fill="#1e1d1b"/><rect x="342" y="563" width="34" height="34" fill="#1e1d1b"/><rect x="376" y="563" width="34" height="34" fill="#e9e6df"/><rect x="410" y="563" width="34" height="34" fill="#e9e6df"/><rect x="444" y="563" width="34" height="34" fill="#e9e6df"/><rect x="478" y="563" width="34" height="34" fill="#e9e6df"/><rect x="512" y="563" width="34" height="34" fill="#e9e6df"/><rect x="546" y="563" width="34" height="34" fill="#e9e6df"/><rect x="580" y="563" width="34" height="34" fill="#a9a6a0"/><rect x="648" y="563" width="34" height="34" fill="#6f6c68"/><rect x="682" y="563" width="34" height="34" fill="#3b3a37"/><rect x="206" y="597" width="34" height="34" fill="#ffffff"/><rect x="240" y="597" width="34" height="34" fill="#e9e6df"/><rect x="274" y="597" width="34" height="34" fill="#e9e6df"/><rect x="308" y="597" width="34" height="34" fill="#e9e6df"/><rect x="342" y="597" width="34" height="34" fill="#1e1d1b"/><rect x="376" y="597" width="34" height="34" fill="#1e1d1b"/><rect x="410" y="597" width="34" height="34" fill="#e9e6df"/><rect x="444" y="597" width="34" height="34" fill="#e9e6df"/><rect x="478" y="597" width="34" height="34" fill="#e9e6df"/><rect x="512" y="597" width="34" height="34" fill="#e9e6df"/><rect x="546" y="597" width="34" height="34" fill="#e9e6df"/><rect x="580" y="597" width="34" height="34" fill="#a9a6a0"/><rect x="648" y="597" width="34" height="34" fill="#6f6c68"/><rect x="682" y="597" width="34" height="34" fill="#3b3a37"/><rect x="206" y="631" width="34" height="34" fill="#ffffff"/><rect x="240" y="631" width="34" height="34" fill="#e9e6df"/><rect x="274" y="631" width="34" height="34" fill="#e9e6df"/><rect x="308" y="631" width="34" height="34" fill="#1e1d1b"/><rect x="342" y="631" width="34" height="34" fill="#1e1d1b"/><rect x="376" y="631" width="34" height="34" fill="#e9e6df"/><rect x="410" y="631" width="34" height="34" fill="#e9e6df"/><rect x="444" y="631" width="34" height="34" fill="#e9e6df"/><rect x="478" y="631" width="34" height="34" fill="#e9e6df"/><rect x="512" y="631" width="34" height="34" fill="#e9e6df"/><rect x="546" y="631" width="34" height="34" fill="#e9e6df"/><rect x="580" y="631" width="34" height="34" fill="#a9a6a0"/><rect x="648" y="631" width="34" height="34" fill="#3b3a37"/><rect x="206" y="665" width="34" height="34" fill="#ffffff"/><rect x="240" y="665" width="34" height="34" fill="#e9e6df"/><rect x="274" y="665" width="34" height="34" fill="#1e1d1b"/><rect x="308" y="665" width="34" height="34" fill="#1e1d1b"/><rect x="342" y="665" width="34" height="34" fill="#e9e6df"/><rect x="376" y="665" width="34" height="34" fill="#e9e6df"/><rect x="410" y="665" width="34" height="34" fill="#1e1d1b"/><rect x="444" y="665" width="34" height="34" fill="#1e1d1b"/><rect x="478" y="665" width="34" height="34" fill="#1e1d1b"/><rect x="512" y="665" width="34" height="34" fill="#1e1d1b"/><rect x="546" y="665" width="34" height="34" fill="#e9e6df"/><rect x="580" y="665" width="34" height="34" fill="#a9a6a0"/><rect x="206" y="699" width="34" height="34" fill="#ffffff"/><rect x="240" y="699" width="34" height="34" fill="#e9e6df"/><rect x="274" y="699" width="34" height="34" fill="#e9e6df"/><rect x="308" y="699" width="34" height="34" fill="#e9e6df"/><rect x="342" y="699" width="34" height="34" fill="#e9e6df"/><rect x="376" y="699" width="34" height="34" fill="#e9e6df"/><rect x="410" y="699" width="34" height="34" fill="#e9e6df"/><rect x="444" y="699" width="34" height="34" fill="#e9e6df"/><rect x="478" y="699" width="34" height="34" fill="#e9e6df"/><rect x="512" y="699" width="34" height="34" fill="#e9e6df"/><rect x="546" y="699" width="34" height="34" fill="#e9e6df"/><rect x="580" y="699" width="34" height="34" fill="#a9a6a0"/><rect x="240" y="733" width="34" height="34" fill="#a9a6a0"/><rect x="274" y="733" width="34" height="34" fill="#a9a6a0"/><rect x="308" y="733" width="34" height="34" fill="#a9a6a0"/><rect x="342" y="733" width="34" height="34" fill="#a9a6a0"/><rect x="376" y="733" width="34" height="34" fill="#a9a6a0"/><rect x="410" y="733" width="34" height="34" fill="#a9a6a0"/><rect x="444" y="733" width="34" height="34" fill="#a9a6a0"/><rect x="478" y="733" width="34" height="34" fill="#a9a6a0"/><rect x="512" y="733" width="34" height="34" fill="#a9a6a0"/><rect x="546" y="733" width="34" height="34" fill="#a9a6a0"/></svg>
